<svg width="0" height="0" class="hidden">
  <symbol fill="none" xmlns="http://www.w3.org/2000/svg" viewBox="0 0 24 24" id="sunset">
    <path fill-rule="evenodd" clip-rule="evenodd" d="M4.25 19C4.25 18.5858 4.58579 18.25 5 18.25H19C19.4142 18.25 19.75 18.5858 19.75 19C19.75 19.4142 19.4142 19.75 19 19.75H5C4.58579 19.75 4.25 19.4142 4.25 19ZM7.25 22C7.25 21.5858 7.58579 21.25 8 21.25H16C16.4142 21.25 16.75 21.5858 16.75 22C16.75 22.4142 16.4142 22.75 16 22.75H8C7.58579 22.75 7.25 22.4142 7.25 22Z" fill="rgba(255,255,255,0.5)"></path>
    <path fill-rule="evenodd" clip-rule="evenodd" d="M12 1.25C12.4142 1.25 12.75 1.58579 12.75 2V3C12.75 3.41421 12.4142 3.75 12 3.75C11.5858 3.75 11.25 3.41421 11.25 3V2C11.25 1.58579 11.5858 1.25 12 1.25ZM4.39861 4.39861C4.6915 4.10572 5.16638 4.10572 5.45927 4.39861L5.85211 4.79145C6.145 5.08434 6.145 5.55921 5.85211 5.85211C5.55921 6.145 5.08434 6.145 4.79145 5.85211L4.39861 5.45927C4.10572 5.16638 4.10572 4.6915 4.39861 4.39861ZM19.6011 4.39887C19.894 4.69176 19.894 5.16664 19.6011 5.45953L19.2083 5.85237C18.9154 6.14526 18.4405 6.14526 18.1476 5.85237C17.8547 5.55947 17.8547 5.0846 18.1476 4.79171L18.5405 4.39887C18.8334 4.10598 19.3082 4.10598 19.6011 4.39887ZM1.25 12C1.25 11.5858 1.58579 11.25 2 11.25H3C3.41421 11.25 3.75 11.5858 3.75 12C3.75 12.4142 3.41421 12.75 3 12.75H2C1.58579 12.75 1.25 12.4142 1.25 12ZM20.25 12C20.25 11.5858 20.5858 11.25 21 11.25H22C22.4142 11.25 22.75 11.5858 22.75 12C22.75 12.4142 22.4142 12.75 22 12.75H21C20.5858 12.75 20.25 12.4142 20.25 12Z" fill="#fff"></path>
    <path d="M5.25 12C5.25 13.1778 5.5521 14.2858 6.08267 15.25H2C1.58579 15.25 1.25 15.5858 1.25 16C1.25 16.4142 1.58579 16.75 2 16.75H22C22.4142 16.75 22.75 16.4142 22.75 16C22.75 15.5858 22.4142 15.25 22 15.25H17.9173C18.4479 14.2858 18.75 13.1778 18.75 12C18.75 8.52558 16.125 5.66428 12.75 5.2912V9.18923L13.4697 8.46956C13.7626 8.17666 14.2374 8.17666 14.5303 8.46956C14.8232 8.76245 14.8232 9.23732 14.5303 9.53022L12.5303 11.5302C12.2374 11.8231 11.7626 11.8231 11.4697 11.5302L9.46967 9.53022C9.17678 9.23732 9.17678 8.76245 9.46967 8.46956C9.76256 8.17666 10.2374 8.17666 10.5303 8.46956L11.25 9.18923V5.2912C7.87504 5.66428 5.25 8.52558 5.25 12Z" fill="rgba(255,255,255,0.518)"></path>
  </symbol>
  <symbol fill="none" xmlns="http://www.w3.org/2000/svg" viewBox="0 0 24 24" id="wind">
    <path fill-rule="evenodd" clip-rule="evenodd" d="M6.25 5.5C6.25 3.70508 7.70507 2.25 9.5 2.25C11.2949 2.25 12.75 3.70507 12.75 5.5C12.75 7.29493 11.2949 8.75 9.5 8.75H3C2.58579 8.75 2.25 8.41421 2.25 8C2.25 7.58579 2.58579 7.25 3 7.25H9.5C10.4665 7.25 11.25 6.4665 11.25 5.5C11.25 4.5335 10.4665 3.75 9.5 3.75C8.5335 3.75 7.75 4.5335 7.75 5.5V5.85714C7.75 6.27136 7.41421 6.60714 7 6.60714C6.58579 6.60714 6.25 6.27136 6.25 5.85714V5.5Z" fill="#fff"></path>
    <path opacity="0.4" d="M3.25 14C3.25 13.5858 3.58579 13.25 4 13.25H18.5C20.8472 13.25 22.75 15.1528 22.75 17.5C22.75 19.8472 20.8472 21.75 18.5 21.75C16.1528 21.75 14.25 19.8472 14.25 17.5V17C14.25 16.5858 14.5858 16.25 15 16.25C15.4142 16.25 15.75 16.5858 15.75 17V17.5C15.75 19.0188 16.9812 20.25 18.5 20.25C20.0188 20.25 21.25 19.0188 21.25 17.5C21.25 15.9812 20.0188 14.75 18.5 14.75H4C3.58579 14.75 3.25 14.4142 3.25 14Z" fill="#fff"></path>
    <path opacity="0.7" d="M14.25 7.5C14.25 5.15279 16.1528 3.25 18.5 3.25C20.8472 3.25 22.75 5.15279 22.75 7.5C22.75 9.84721 20.8472 11.75 18.5 11.75H2C1.58579 11.75 1.25 11.4142 1.25 11C1.25 10.5858 1.58579 10.25 2 10.25H18.5C20.0188 10.25 21.25 9.01878 21.25 7.5C21.25 5.98122 20.0188 4.75 18.5 4.75C16.9812 4.75 15.75 5.98122 15.75 7.5V8C15.75 8.41421 15.4142 8.75 15 8.75C14.5858 8.75 14.25 8.41421 14.25 8V7.5Z" fill="#fff"></path>
  </symbol>
  <symbol fill="none" xmlns="http://www.w3.org/2000/svg" viewBox="0 0 24 24" id="temperature">
    <path d="M15 6V5C15 3.34315 13.6569 2 12 2C10.3431 2 9 3.34315 9 5V11.3477C9 11.6857 8.82505 11.9957 8.56141 12.2072C7.30465 13.2152 6.5 14.7636 6.5 16.5C6.5 19.5376 8.96243 22 12 22C15.0376 22 17.5 19.5376 17.5 16.5C17.5 14.7636 16.6954 13.2152 15.4386 12.2072C15.1749 11.9957 15 11.6857 15 11.3477V10" stroke="#fff" stroke-width="1.5" stroke-linecap="round"></path>
    <path d="M14.4998 16.5C14.4998 17.8807 13.3805 19 11.9998 19C10.619 19 9.49976 17.8807 9.49976 16.5C9.49976 15.1193 10.619 14 11.9998 14C13.3805 14 14.4998 15.1193 14.4998 16.5Z" stroke="#f48194" stroke-width="1.5"></path>
    <path d="M12 14V12M12 5V8" stroke="#f48194" stroke-width="1.5" stroke-linecap="round"></path>
  </symbol>
  <symbol version="1.1" xmlns="http://www.w3.org/2000/svg" viewBox="0 0 1024 1024" id="humidity">
    <path d="M339.7 882.5C196.6 882.5 80.2 766.1 80.2 623c0-133.2 204.8-395.1 228.2-424.5 5.8-7.3 14.5-11.6 23.8-11.7 9.4-0.1 18.1 3.9 24.1 11 1.5 1.8 37.7 44.8 82.2 105.2 10.1 13.8 7.2 33.2-6.6 43.3-13.8 10.1-33.2 7.2-43.3-6.6-21.3-29-40.9-54-55.3-72.1-69.2 92-191.2 271.5-191.2 355.4 0 108.9 88.6 197.6 197.6 197.6S537.3 731.9 537.3 623c0-17.1 13.9-31 31-31s31 13.9 31 31c-0.1 143.1-116.5 259.5-259.6 259.5z" fill="rgba(255,255,255,0.589)"></path>
    <path d="M363.7 468.8c-27.9 59.7-46.8 115.7-46.8 158.4 0 164.6 133.4 298 298 298s298-133.4 298-298c0-12.8-1.9-26.9-5.5-41.9-327.2 33.9-284.9-194.9-543.7-116.5z" fill="#6353ee"></path>
    <path d="M333.6 567.6c-38.2 239.9 123 357.7 287.3 357.7 92.8 0 144.9-12.1 199.6-78.6-261.5 20.7-428.7-99.2-486.9-279.1z" fill="#4b3ebc"></path>
    <path d="M614.9 956.1C433.5 956.1 286 808.5 286 627.2c0-173.4 283.4-532.4 295.5-547.6 5.8-7.3 14.5-11.6 23.8-11.7 9.3-0.1 18.1 3.9 24.1 11 2 2.3 49 58.2 106.8 136.6 10.1 13.8 7.2 33.2-6.6 43.3-13.8 10.1-33.2 7.2-43.3-6.6-31.8-43.2-60.6-79.8-79.9-103.7C517 266.1 347.9 512.3 347.9 627.2c0 147.2 119.8 267 267 267s267-119.8 267-267c0-29.7-13.2-87.9-76.4-196.2-8.6-14.8-3.6-33.7 11.2-42.3 14.8-8.6 33.7-3.6 42.3 11.2 57.1 97.9 84.8 172.2 84.8 227.4 0 181.3-147.6 328.8-328.9 328.8z" fill="#fff"></path>
  </symbol>
  <symbol xmlns="http://www.w3.org/2000/svg" viewBox="-0.13 0 20.355 20.355" id="rain">
    <g id="rain-alt" transform="translate(-1.912 -1.986)">
      <path id="secondary" fill="#4a00e9" d="M21,9a4,4,0,0,1-4,4H6A3,3,0,1,1,7.08,7.21a5,5,0,0,1,9-2.09A4.08,4.08,0,0,1,17,5a4,4,0,0,1,4,4Z"></path>
      <path id="primary" d="M6,17,5,19m5-2L8,21m6-4-1,2m5-2-2,4M17,5a4.08,4.08,0,0,0-.93.12,5,5,0,0,0-9,2.09A3,3,0,1,0,6,13H17a4,4,0,0,0,0-8Z" fill="none" stroke="#fff" stroke-linecap="round" stroke-linejoin="round" stroke-width="1"></path>
    </g>
  </symbol>
  <symbol fill="none" xmlns="http://www.w3.org/2000/svg" viewBox="0 0 24 24" id="sunrise">
    <path fill-rule="evenodd" clip-rule="evenodd" d="M7.25 22C7.25 21.5858 7.58579 21.25 8 21.25H16C16.4142 21.25 16.75 21.5858 16.75 22C16.75 22.4142 16.4142 22.75 16 22.75H8C7.58579 22.75 7.25 22.4142 7.25 22Z" fill="#fff"></path>
    <path fill-rule="evenodd" clip-rule="evenodd" d="M12 1.25C12.4142 1.25 12.75 1.58579 12.75 2V3C12.75 3.41421 12.4142 3.75 12 3.75C11.5858 3.75 11.25 3.41421 11.25 3V2C11.25 1.58579 11.5858 1.25 12 1.25ZM1.25 12C1.25 11.5858 1.58579 11.25 2 11.25H3C3.41421 11.25 3.75 11.5858 3.75 12C3.75 12.4142 3.41421 12.75 3 12.75H2C1.58579 12.75 1.25 12.4142 1.25 12ZM20.25 12C20.25 11.5858 20.5858 11.25 21 11.25H22C22.4142 11.25 22.75 11.5858 22.75 12C22.75 12.4142 22.4142 12.75 22 12.75H21C20.5858 12.75 20.25 12.4142 20.25 12Z" fill="#fff"></path>
    <path opacity="0.5" d="M5.25 12C5.25 13.1778 5.5521 14.2858 6.08267 15.25H2C1.58579 15.25 1.25 15.5858 1.25 16C1.25 16.4142 1.58579 16.75 2 16.75H11.25V11.8107L10.5303 12.5303C10.2374 12.8232 9.76256 12.8232 9.46967 12.5303C9.17678 12.2374 9.17678 11.7626 9.46967 11.4697L11.4697 9.46967C11.7626 9.17678 12.2374 9.17678 12.5303 9.46967L14.5303 11.4697C14.8232 11.7626 14.8232 12.2374 14.5303 12.5303C14.2374 12.8232 13.7626 12.8232 13.4697 12.5303L12.75 11.8107V16.75H22C22.4142 16.75 22.75 16.4142 22.75 16C22.75 15.5858 22.4142 15.25 22 15.25H17.9173C18.4479 14.2858 18.75 13.1778 18.75 12C18.75 8.27208 15.7279 5.25 12 5.25C8.27208 5.25 5.25 8.27208 5.25 12Z" fill="#fff"></path>
    <path d="M12.5303 9.46967C12.2374 9.17678 11.7626 9.17678 11.4697 9.46967L9.46967 11.4697C9.17678 11.7626 9.17678 12.2374 9.46967 12.5303C9.76256 12.8232 10.2374 12.8232 10.5303 12.5303L11.25 11.8107V16.75H12.75V11.8107L13.4697 12.5303C13.7626 12.8232 14.2374 12.8232 14.5303 12.5303C14.8232 12.2374 14.8232 11.7626 14.5303 11.4697L12.5303 9.46967Z" fill="#fff"></path>
    <path d="M4.25 19C4.25 18.5858 4.58579 18.25 5 18.25H19C19.4142 18.25 19.75 18.5858 19.75 19C19.75 19.4142 19.4142 19.75 19 19.75H5C4.58579 19.75 4.25 19.4142 4.25 19Z" fill="#fff"></path>
    <g opacity="0.5">
      <path d="M4.39838 4.39838C4.69127 4.10549 5.16615 4.10549 5.45904 4.39838L5.85188 4.79122C6.14477 5.08411 6.14477 5.55898 5.85188 5.85188C5.55898 6.14477 5.08411 6.14477 4.79122 5.85188L4.39838 5.45904C4.10549 5.16615 4.10549 4.69127 4.39838 4.39838Z" fill="#fff"></path>
      <path d="M19.6009 4.39864C19.8938 4.69153 19.8938 5.16641 19.6009 5.4593L19.2081 5.85214C18.9152 6.14503 18.4403 6.14503 18.1474 5.85214C17.8545 5.55924 17.8545 5.08437 18.1474 4.79148L18.5402 4.39864C18.8331 4.10575 19.308 4.10575 19.6009 4.39864Z" fill="#fff"></path>
    </g>
  </symbol>
</svg>